<!-- icon666.com - MILLIONS vector ICONS FREE --><svg id="Capa_1" enable-background="new 0 0 503.798 503.798" viewBox="0 0 503.798 503.798" xmlns="http://www.w3.org/2000/svg"><g><g id="Page-1_34_"><g id="_x30_35---Airplane"><path id="Shape_180_" d="m312.278 191.47c.074-8.682-3.354-17.026-9.51-23.149-6.544-5.902-15.17-8.955-23.97-8.482s-17.049 4.431-22.924 11c-14.512 14.462-13.362 35.169-11.751 63.79.21 3.777.428 7.73.63 11.818.296 6.686 5.637 12.045 12.322 12.364 4.197.201 8.125.42 11.91.629 8.511.47 16.317.906 23.502.906 17.014 0 30.326-2.442 40.532-12.59 6.606-5.841 10.593-14.089 11.066-22.895s-2.606-17.433-8.548-23.949c-6.166-6.15-14.551-9.554-23.259-9.442zm8.847 44.393c-9.233 9.166-25.021 8.293-51.2 6.841-2.745-.151-5.59-.311-8.561-.462-.151-2.938-.311-5.775-.462-8.519-1.578-28.261-1.939-42.236 6.857-50.999 5.727-7.086 16.103-8.211 23.216-2.518 4.375 4.979 5.746 11.92 3.592 18.189-1.13 3.059-.386 6.495 1.908 8.813s5.723 3.097 8.793 1.998c6.312-2.17 13.301-.825 18.356 3.534 2.751 3.393 4.033 7.744 3.56 12.087-.473 4.342-2.661 8.316-6.078 11.037h.019z" fill="#000000" style="fill: rgb(250, 250, 250);"></path><path id="Shape_179_" d="m390.27 31.038-90.649 90.649-36.302-11.474c3.871-6.552 2.811-14.895-2.577-20.27l-17.719-17.794c-6.614-6.335-17.054-6.302-23.628.076l-19.481 19.481-17.735-5.556 1.939-1.956c3.181-3.083 4.979-7.321 4.986-11.751.044-4.481-1.727-8.789-4.91-11.944l-17.735-17.702c-6.554-6.454-17.074-6.454-23.628 0l-22.327 22.335-30.233-9.543c-8.905-2.744-18.597-.374-25.231 6.169l-18.893 18.801c-5.484 5.448-8.113 13.143-7.109 20.807.968 7.76 5.499 14.626 12.254 18.566l119.976 69.951c1.235.696 2.365 1.564 3.357 2.577l27.144 27.119c-30.893 31.371-59.593 64.828-85.898 100.134l-79.486-14c-8.027-1.425-16.243 1.16-22.008 6.925l-7.009 7.009c-5.686 5.703-8.29 13.789-7 21.739 1.236 7.958 6.268 14.815 13.488 18.382l61.541 30.72c-4.961 15.318-4.902 27.774 2.636 35.32 7.537 7.546 19.993 7.554 35.311 2.627l30.703 61.558c4.264 8.457 12.923 13.796 22.394 13.807 6.647-.006 13.022-2.64 17.735-7.327l7-7.009c5.762-5.759 8.35-13.968 6.933-21.991l-13.983-79.503c35.285-26.296 68.714-54.994 100.05-85.89l27.195 27.203c1.032 1.006 1.917 2.153 2.627 3.408l69.926 119.909c3.939 6.741 10.794 11.262 18.541 12.229 1.069.133 2.146.201 3.223.201 6.616.008 12.962-2.627 17.626-7.319l18.785-18.877c6.551-6.636 8.924-16.336 6.178-25.247l-9.535-30.216 22.411-22.402c6.344-6.563 6.307-16.984-.084-23.502l-17.71-17.719c-3.183-3.145-7.478-4.906-11.952-4.902-4.388-.039-8.605 1.699-11.692 4.818l-2.056 2.031-5.582-17.752 19.565-19.557c6.343-6.621 6.299-17.078-.101-23.644l-17.626-17.534c-5.452-5.274-13.711-6.364-20.346-2.686l-11.44-36.218 90.649-90.725c33.028-33.028 40.809-77.052 17.693-100.268-23.116-23.216-67.19-15.285-100.201 17.727zm-368.909 313.738c-2.363-1.202-4.009-3.461-4.429-6.078s.437-5.278 2.305-7.158l7.009-7.009c1.888-1.889 4.581-2.735 7.21-2.266l71.688 12.59c-8.837 12.713-16.693 26.081-23.502 39.986zm160.214 125.625c.469 2.624-.378 5.312-2.266 7.193l-7.009 7.009c-1.879 1.865-4.537 2.721-7.151 2.303-2.615-.418-4.873-2.06-6.077-4.418l-30.09-60.332c13.905-6.804 27.27-14.661 39.978-23.502zm279.359-368.649-90.649 90.649c-4.474 4.393-6.097 10.929-4.197 16.904l13.916 44.015-13.354 13.354c-2.119 2.132-2.939 5.232-2.152 8.133s3.062 5.161 5.968 5.93 6.001-.071 8.119-2.203l16.963-16.963.067-.101 6.446-6.455 17.651 17.576-22.948 22.939c-.05.05-.118.067-.168.117l-15.788 15.788c-2.126 2.122-2.959 5.216-2.185 8.118s3.038 5.171 5.938 5.951 5.997-.046 8.123-2.167l6.018-6.018 5.598 17.794-8.175 8.167c-2.395 2.051-3.439 5.272-2.701 8.338s3.132 5.46 6.198 6.198 6.287-.306 8.338-2.701l11.793-11.751c.059-.059.076-.151.134-.21l11.575-11.608 17.71 17.626-25.843 25.835-.109.076-15.259 15.284c-2.344 2.063-3.349 5.257-2.609 8.291s3.104 5.406 6.135 6.157 6.229-.243 8.3-2.58l5.548-5.548 6.916 21.915c.901 2.95.112 6.157-2.056 8.352l-18.785 18.868c-1.782 1.806-4.31 2.667-6.824 2.325-2.577-.325-4.858-1.825-6.178-4.062l-69.859-119.749c-1.444-2.544-3.235-4.875-5.321-6.925l-27.195-27.203c-6.52-6.473-17.041-6.473-23.56 0-101.373 99.708-172.734 133.517-182.563 123.722s24.014-81.19 123.719-182.515c6.507-6.528 6.507-17.091 0-23.619l-27.195-27.144c-2.023-2.064-4.322-3.838-6.832-5.271l-119.816-69.927c-2.258-1.319-3.773-3.616-4.096-6.211-.339-2.505.516-5.025 2.308-6.807l18.902-18.81c2.191-2.15 5.381-2.932 8.318-2.04l21.932 6.925-5.548 5.548c-2.182 2.107-3.057 5.228-2.289 8.163s3.06 5.226 5.995 5.995 6.055-.107 8.163-2.289l15.318-15.318.076-.109 25.718-25.843 17.693 17.626-11.584 11.666c-.059.059-.134.067-.185.126l-11.751 11.751c-2.182 2.107-3.057 5.228-2.289 8.163s3.06 5.226 5.995 5.995c2.935.768 6.055-.107 8.163-2.289l8.175-8.167 17.786 5.598-6.018 6.018c-2.182 2.107-3.057 5.228-2.289 8.163s3.06 5.226 5.995 5.995c2.935.768 6.055-.107 8.163-2.289l15.763-15.78c.05-.05.067-.118.118-.176l22.881-22.931 17.626 17.626-6.438 6.513-.092.067-16.988 16.921c-2.182 2.107-3.057 5.228-2.289 8.163s3.06 5.226 5.995 5.995c2.935.768 6.055-.107 8.163-2.289l13.354-13.354 44.124 13.975c5.939 1.882 12.432.259 16.787-4.197l90.733-90.649c25.499-25.499 60.55-33.574 76.498-17.719 15.945 15.855 7.761 51.024-17.738 76.573z" fill="#000000" style="fill: rgb(250, 250, 250);"></path></g></g></g></svg>