<!-- icon666.com - MILLIONS vector ICONS FREE --><svg viewBox="0 0 512 512" xmlns="http://www.w3.org/2000/svg"><g id="_6.Email" data-name="6.Email"><path d="m152.6845 151.6339a52.4345 52.4345 0 0 0 -30.5122 9.7408l85.2334 71.3486a75.6163 75.6163 0 0 0 97.187 0l85.2339-71.3486a52.4343 52.4343 0 0 0 -30.5122-9.7408z" fill="#000000" style="fill: rgb(250, 250, 250);"></path><path d="m398.8 169.5116-86.5049 72.4129a87.604 87.604 0 0 1 -112.5928 0l-86.5034-72.4122a52.4319 52.4319 0 0 0 -13.1714 34.7837v103.4078a52.72 52.72 0 0 0 52.6606 52.6611h206.6234a52.72 52.72 0 0 0 52.6606-52.6611v-103.4078a52.4316 52.4316 0 0 0 -13.1721-34.7844z" fill="#000000" style="fill: rgb(250, 250, 250);"></path><path d="m256 11c-135.31 0-245 109.69-245 245s109.69 245 245 245 245-109.69 245-245-109.69-245-245-245zm167.9721 296.7038a64.7342 64.7342 0 0 1 -64.6606 64.6611h-206.6231a64.7342 64.7342 0 0 1 -64.6606-64.6611v-103.4078a64.7342 64.7342 0 0 1 64.6606-64.6611h206.6231a64.7342 64.7342 0 0 1 64.6606 64.6611z" fill="#000000" style="fill: rgb(250, 250, 250);"></path></g></svg>