<!-- icon666.com - MILLIONS vector ICONS FREE --><svg xmlns="http://www.w3.org/2000/svg" id="Layer_1" data-name="Layer 1" viewBox="0 0 48 48"><path d="M28.5,9.66233V7.00005a3.49945,3.49945,0,0,0-3.49993-3.50011H23a3.49951,3.49951,0,0,0-3.5,3.50011h0c0,.86238,0,1.84988-.00832,2.64575v.01653a.48835.48835,0,0,1-.33335.46272c0,.00395-.00419.00395-.00832.00395a12.45033,12.45033,0,0,0-1.53339.65.49544.49544,0,0,1-.57074-.09994L15.16252,8.79576a3.5006,3.5006,0,0,0-4.95,0L8.79586,10.21254a3.50053,3.50053,0,0,0,0,4.94995c.60838.60832,1.31244,1.30819,1.86666,1.87505L10.675,17.05a.50059.50059,0,0,1,.09174.56661l-.0042.00827a12.8236,12.8236,0,0,0-.6291,1.54177.49905.49905,0,0,1-.47093.33341H7A3.49944,3.49944,0,0,0,3.5,23v1.99979A3.49955,3.49955,0,0,0,7,28.49994H7c.86244,0,1.85,0,2.64582.0084h.01665a.49722.49722,0,0,1,.46667.33315V28.85a13.343,13.343,0,0,0,.66674,1.57076.50366.50366,0,0,1-.09594.57081L8.82084,32.87922a3.50048,3.50048,0,0,0,.01253,4.95L10.25,39.23743a3.49663,3.49663,0,0,0,4.95-.01259c.60844-.60832,1.30838-1.31251,1.875-1.86653l.01246-.01246a.48866.48866,0,0,1,.56261-.096l.00826.00433a12.86525,12.86525,0,0,0,1.5084.61238.49868.49868,0,0,1,.33327.471V41A3.49967,3.49967,0,0,0,23,44.50006h2A3.49961,3.49961,0,0,0,28.5,41h0c0-.86251,0-1.85.00832-2.64588v-.01653a.48808.48808,0,0,1,.33335-.46259c0-.00407.00419-.00407.00839-.00407a12.45874,12.45874,0,0,0,1.53338-.65.49594.49594,0,0,1,.5708.09982L32.83748,39.204a3.5006,3.5006,0,0,0,4.95,0l1.41665-1.41665a3.50054,3.50054,0,0,0,0-4.95c-.60825-.60819-1.31251-1.30818-1.86666-1.87492L37.325,30.95a.5008.5008,0,0,1-.09168-.56661l.00414-.00852a12.825,12.825,0,0,0,.62917-1.54165.49865.49865,0,0,1,.47086-.33328H41a3.49955,3.49955,0,0,0,3.5-3.50011V23a3.49944,3.49944,0,0,0-3.5-3.5h0c-.86251,0-1.85,0-2.64582-.0084h-.01665a.4973.4973,0,0,1-.4666-.3334v-.00839a13.38427,13.38427,0,0,0-.66669-1.57077A.50381.50381,0,0,1,37.3,17.00817l1.87919-1.88739a3.50053,3.50053,0,0,0-.01253-4.94995L37.75,8.76232a3.497,3.497,0,0,0-4.95.01259c-.60826.60844-1.30832,1.31263-1.87493,1.86665l-.01252.01247a.48848.48848,0,0,1-.56248.096l-.00839-.00432a12.86919,12.86919,0,0,0-1.50833-.61239.49872.49872,0,0,1-.33334-.471ZM24,18.74983a5.25011,5.25011,0,1,0,5.25,5.25,5.25467,5.25467,0,0,0-5.25-5.25Z" fill-rule="evenodd" fill="#000000" style="fill: rgb(250, 250, 250);"></path></svg>